<svg xmlns="http://www.w3.org/2000/svg" data-name="Layer 1" viewBox="0 0 70 87.5" x="0px" y="0px"><title>Artboard 76</title><path d="M26.87,49.86a3.46,3.46,0,0,0,3.47,3.46H40.42a3.47,3.47,0,0,0,3.47-3.46V37.11h-17Zm13.55,1.53H30.34a1.54,1.54,0,0,1-1.54-1.53V44.24H42v5.62A1.54,1.54,0,0,1,40.42,51.39ZM42,39V42.3H28.8V39Z"/><path d="M53.24,30.91H51.72a6.83,6.83,0,0,1-6.83-6.83V17.76H42.45V11.93a7.07,7.07,0,0,0-7.07-7.07,7.08,7.08,0,0,0-7.08,7.07v5.83H25.87v6.32A6.84,6.84,0,0,1,19,30.91H17.51A8.43,8.43,0,0,0,9.1,39.32v8.56a1,1,0,1,0,1.94,0V39.32a6.47,6.47,0,0,1,6.47-6.47h.32V61.14a3.73,3.73,0,0,0,3.72,3.72H49.2a3.73,3.73,0,0,0,3.72-3.72V32.85h.32a6.48,6.48,0,0,1,6.48,6.47v8.56a1,1,0,1,0,1.93,0V39.32A8.42,8.42,0,0,0,53.24,30.91Zm-23-19a5.14,5.14,0,0,1,10.28,0v5.83H30.24Zm19,51H21.55a1.78,1.78,0,0,1-1.78-1.78V32.81a8.77,8.77,0,0,0,8-8.73V19.69H43v4.39a8.77,8.77,0,0,0,8,8.73V61.14A1.78,1.78,0,0,1,49.2,62.92Z"/><text x="0" y="85" fill="#000000" font-size="5px" font-weight="bold" font-family="'Helvetica Neue', Helvetica, Arial-Unicode, Arial, Sans-serif">Created by Semmel Zenko</text><text x="0" y="90" fill="#000000" font-size="5px" font-weight="bold" font-family="'Helvetica Neue', Helvetica, Arial-Unicode, Arial, Sans-serif">from the Noun Project</text></svg>