<svg xmlns="http://www.w3.org/2000/svg" viewBox="0 0 512 640" x="0px" y="0px"><desc>Face shield icon for website, application, printing, document, poster design, etc.</desc><metadata><?xpacket begin="&#65279;" id="W5M0MpCehiHzreSzNTczkc9d"?><x:xmpmeta xmlns:x="adobe:ns:meta/" x:xmptk="Adobe XMP Core 5.6-c145 79.162955, 2018/05/10-01:07:16        "/><?xpacket end="w"?></metadata><g><path d="M424,32H259.7A32.012,32.012,0,0,0,232,16H112A95.617,95.617,0,0,0,46.109,42.183L57.094,53.817A79.672,79.672,0,0,1,112,32H232a16.019,16.019,0,0,1,16,16V80H112c-35.261,0-63.532,11.583-80,31.891A79.468,79.468,0,0,1,46.541,66L33.459,56.785A95.394,95.394,0,0,0,16,112V488a8,8,0,0,0,8,8H133.088A130.911,130.911,0,0,0,264,365.088V272H424a72.081,72.081,0,0,0,72-72V104A72.081,72.081,0,0,0,424,32ZM248,365.088A114.912,114.912,0,0,1,133.088,480H32V241.584A94.274,94.274,0,0,0,101.666,272H248ZM248,256H101.666A78.38,78.38,0,0,1,32,214.041V165a95.986,95.986,0,0,0,80,43H232a16.019,16.019,0,0,1,16,16Zm232-56a56.063,56.063,0,0,1-56,56H264V224H424a71.9,71.9,0,0,0,56-26.793Zm-56,8H259.7A32.012,32.012,0,0,0,232,192H112a80.129,80.129,0,0,1-76.054-55.224c4.738-12.666,13.68-22.656,26.619-29.716C75.827,99.825,92.921,96,112,96H248v80h16V96H424a56,56,0,0,1,0,112Zm56-101.207A71.9,71.9,0,0,0,424,80H264V48H424a56.063,56.063,0,0,1,56,56ZM232,48V64H216V48ZM216,224h16v16H216ZM48,296H64v16H48Zm0,32H64V440H48Z"/></g><text x="0" y="527" fill="#000000" font-size="5px" font-weight="bold" font-family="'Helvetica Neue', Helvetica, Arial-Unicode, Arial, Sans-serif">Created by monkik</text><text x="0" y="532" fill="#000000" font-size="5px" font-weight="bold" font-family="'Helvetica Neue', Helvetica, Arial-Unicode, Arial, Sans-serif">from the Noun Project</text></svg>